<svg xmlns="http://www.w3.org/2000/svg" viewBox="0 0 290.78 85.31"><defs><style>.cls-1{fill:#ff900e;}</style></defs><title>Asset 1</title><g id="Layer_2" data-name="Layer 2"><g id="Camada_1" data-name="Camada 1"><path class="cls-1" d="M31.23,28.79c.1-1,.15-2.16.19-3.28s.1-2.45.22-3.51c.33-3,1.13-11.79,1.2-13.22,0-.16,0-.39,0-.67a27.12,27.12,0,0,0,0-4.83A3.85,3.85,0,0,0,30,.05a3.68,3.68,0,0,0-3.75,2c-1.52,2.51-1.92,6.58-2.13,8.76-.09.88-.4,3.53-.66,5.66l-.09.79a5.63,5.63,0,0,0-.43-.4,6.48,6.48,0,0,0-3.13-1.29,4.84,4.84,0,0,0-3.18.52,3.78,3.78,0,0,0-1.47,1.31,5.68,5.68,0,0,0-4.41-1,5.76,5.76,0,0,0-2.4,1,11.51,11.51,0,0,0-.14-1.7L8,14.34c-.06-.49-.13-1-.2-1.44,0-.18-.06-.36-.08-.54a8.07,8.07,0,0,0-1.38-4.1,3,3,0,0,0-2.18-.82A3.32,3.32,0,0,0,1.4,8.58C-.08,10.36,0,11.89,0,14.43v.49c.05,2,.16,3.81.27,5.74,0,.81.09,1.64.14,2.49a43,43,0,0,1-.21,5.54c-.08.92-.16,1.88-.2,2.79a22.57,22.57,0,0,0,.77,8.29l.13.36a20,20,0,0,0,2.33,5h0c.07.83.12,1.47.16,2a37.44,37.44,0,0,1,0,7l-.08,1.81C3.08,62.24,5.12,67.15,9.43,70.5l1.17.91,0-1.48c0-.57,0-1-.07-1.35A8.49,8.49,0,0,1,10.63,66c3.28,4,3.36,7.18,3.49,12.65,0,1.59.09,3.39.22,5.44l.07,1.2,1-.65a19,19,0,0,0,9.13-14.25,26.35,26.35,0,0,0-.8-9.57,9.35,9.35,0,0,0,3.55,1.37l1.63.34-.88-1.41c-2.69-4.3-2.71-8.64-2.74-12.46v-1a19.88,19.88,0,0,0,3.25-2.43,17,17,0,0,0,4.77-8A10.13,10.13,0,0,0,31.23,28.79ZM24.82,16.64c.27-2.25.57-4.8.66-5.69.2-2.07.58-5.93,1.93-8.17a2.31,2.31,0,0,1,2.3-1.34,2.48,2.48,0,0,1,1.83,2.12A32.78,32.78,0,0,1,31.46,8c0,.29,0,.53,0,.69-.07,1.42-.86,10.13-1.19,13.13-.13,1.12-.18,2.39-.22,3.61,0,.71-.06,1.43-.11,2.12a15.63,15.63,0,0,0-5.8-2.36c.08-.85.17-2.33.26-4,0-.69.08-1.3.09-1.44Zm-7.58.71A3.35,3.35,0,0,1,19.53,17,5.19,5.19,0,0,1,22,18a3.05,3.05,0,0,1,1,1.82c0,.24,0,.68-.08,1.36-.06,1.09-.16,2.89-.25,3.83a2.83,2.83,0,0,0-2.24.82c-1.17,1.19-1.2,3.29-.82,4.86a5.4,5.4,0,0,0,.75,1.7,4.27,4.27,0,0,1-3.86.27,2.54,2.54,0,0,1-.69-1.18,1.17,1.17,0,0,0-.05-.11A19.26,19.26,0,0,0,16.31,27c0-.2,0-.38,0-.56s0-.61.05-.92a22,22,0,0,0,0-3.54,22.94,22.94,0,0,0-.49-3.3l.24-.35A2.55,2.55,0,0,1,17.24,17.35Zm-2.39,1.08c-.23-.91.11.38,0,0ZM11,17.82c1.12-.22,3.07.12,3.51,1A18.54,18.54,0,0,1,15,22.16a20.41,20.41,0,0,1,0,3.31c0,.32,0,.63-.05,1,0,.17,0,.36,0,.57a17.69,17.69,0,0,1-.52,4.17C13.85,32.84,13,33,12.77,33a2.94,2.94,0,0,1-2.43-.51c-1-.78-1.6-2.45-1.71-4.57,0-.74,0-1.52,0-2.27s0-1.51-.05-2.26c0-.42-.09-1.35-.15-2.18,0-.58-.08-1.13-.1-1.42v-.1A3.26,3.26,0,0,1,11,17.82ZM32,37a15.62,15.62,0,0,1-4.34,7.21,17.9,17.9,0,0,1-3.37,2.47,8.13,8.13,0,0,1-3.61,1.13l.06,1.42a8.85,8.85,0,0,0,3.21-.8v.26c0,3.58,0,7.59,2.11,11.71-1.69-.59-2.45-1.46-3.47-3.22a30,30,0,0,0-2-2.47,22.9,22.9,0,0,0,.7,3.08c2,5,5.21,17.16-5.6,25-.08-1.52-.11-2.89-.14-4.14-.15-6.09-.24-9.76-4.81-14.64L9.8,63l-.28,1.33a12.94,12.94,0,0,0-.45,4C6,65.3,4.54,61.25,4.77,56l.08-1.81a39.52,39.52,0,0,0,0-7.15l0-.16A17.81,17.81,0,0,0,6.32,48a6.82,6.82,0,0,0,1.41.73c.25.1.48.2.73.32L9.1,47.8c-.3-.15-.56-.26-.82-.37a5.22,5.22,0,0,1-1.15-.59,14.45,14.45,0,0,1-1.66-1.31,6.82,6.82,0,0,1-.85-.92,17.34,17.34,0,0,1-2.34-5l-.12-.36a21.44,21.44,0,0,1-.7-7.75c.05-.89.12-1.79.2-2.75a43.63,43.63,0,0,0,.21-5.72c0-.85-.09-1.68-.14-2.5-.11-1.93-.22-3.74-.27-5.7v-.49c-.06-2.43-.1-3.54,1-4.9a1.9,1.9,0,0,1,1.35-.63,2.36,2.36,0,0,1,1.33.26,6.77,6.77,0,0,1,1.1,3.43c0,.19.05.37.07.56.08.47.14,1,.21,1.42s.13,1,.2,1.42a8.92,8.92,0,0,1,.12,2.11,15.22,15.22,0,0,0,0,1.55v.3c0,.29.06.84.11,1.44.06.81.13,1.73.15,2.14,0,.72,0,1.47,0,2.19s0,1.57,0,2.35c.07,1.48.46,4.18,2.24,5.59a4.25,4.25,0,0,0,3.54.8A3,3,0,0,0,15.05,33a3.29,3.29,0,0,0,.56.65,4.33,4.33,0,0,0,2.59.69,5.08,5.08,0,0,0,3.07-1c.25.25.52.49.8.72a8.18,8.18,0,0,0-1.61,1.36l-.26.28a6.37,6.37,0,0,0-1.7,2.5l1.36.36a5.54,5.54,0,0,1,1.37-1.88c.09-.11.19-.2.27-.3a4.88,4.88,0,0,1,1.95-1.4A9,9,0,0,0,27,36.23l.12-1.41a7.79,7.79,0,0,1-3.24-1.11,8,8,0,0,1-1.95-1.65A4.46,4.46,0,0,1,21,30.31a4.08,4.08,0,0,1,.46-3.54,1.69,1.69,0,0,1,1.69-.33l.11,0c2.46.6,5,1.21,6.7,3.05l.12.13,0,0A8.71,8.71,0,0,1,32,37Z"/><path class="cls-1" d="M141.28,59.72V25.59h11.31v4.14h-6.75V40.09h4.33v4.14h-4.33V55.58h6.75v4.14ZM251.85,25.59h-4.57V59.72h4.57Zm4,17,5.35-17H257l-5.3,17.16V43l6.2,16.68h4.57ZM170,42h3c1.36,0,2-.83,2-2.47V32.2c0-1.65-.68-2.47-2-2.47h-3Zm-4.56-16.45h8.94q5.22,0,5.22,5.85v8.41q0,4.47-2.7,5.66l4,14.21h-4.32l-3.83-13.78H170V59.72h-4.56ZM279.87,42h3c1.36,0,2-.83,2-2.47V32.2c0-1.65-.68-2.47-2-2.47h-3Zm-4.56-16.45h8.93q5.24,0,5.23,5.85v8.41q0,4.47-2.71,5.66l4,14.21h-4.33l-3.82-13.78h-2.76V59.72h-4.56Zm-156.66,30h3.42c1.21,0,1.81-.5,1.81-1.52V32.2c0-1.65-.68-2.47-2-2.47h-3.19Zm-4.56,4.14V25.59H122q6.41,0,6.41,6.56V54.78q0,4.94-5.46,4.94Zm-23.6-6.13a1.78,1.78,0,0,0,2,2h2.33c1.2,0,1.81-.66,1.81-2V31.72a1.79,1.79,0,0,0-2-2H92.48a1.76,1.76,0,0,0-2,2V53.59m1,6.13q-5.52,0-5.52-5.8V31.44c0-3.9,1.83-5.85,5.47-5.85h4.37q5.47,0,5.47,5.85V53.92q0,5.8-5.51,5.8Zm-18.35-8v2.19q0,5.8-5.46,5.8H64.68c-3.64,0-5.47-1.93-5.47-5.8V31.39c0-3.86,1.83-5.8,5.47-5.8h2.95c3.64,0,5.46,1.94,5.46,5.8v3.85H68.53V31.72a1.78,1.78,0,0,0-2-2h-.91c-1.2,0-1.8.66-1.8,2V53.59c0,1.33.6,2,1.8,2h1.14c1.21,0,1.81-.66,1.81-2V51.73Zm161.36,0v2.19c0,3.87-1.83,5.8-5.47,5.8H226q-5.46,0-5.46-5.8V31.39c0-3.86,1.82-5.8,5.46-5.8H229c3.64,0,5.47,1.94,5.47,5.8v3.85h-4.57V31.72a1.78,1.78,0,0,0-2-2h-.9c-1.21,0-1.81.66-1.81,2V53.59c0,1.33.6,2,1.81,2h1.14c1.2,0,1.8-.66,1.8-2V51.73ZM197,53.59a1.79,1.79,0,0,0,2.05,2h2.33c1.2,0,1.8-.66,1.8-2V31.72a1.78,1.78,0,0,0-2-2H199a1.76,1.76,0,0,0-2,2V53.59m1,6.13q-5.52,0-5.52-5.8V31.44q0-5.85,5.47-5.85h4.37c3.64,0,5.47,1.95,5.47,5.85V53.92q0,5.8-5.52,5.8Z"/></g></g></svg>